<svg width="20" height="22" viewBox="0 0 20 22" fill="none" xmlns="http://www.w3.org/2000/svg">
<path fill-rule="evenodd" clip-rule="evenodd" d="M12.0351 0.643796C12.4051 0.377796 12.9251 0.253796 13.4361 0.440796C14.5224 0.838961 15.5313 1.42262 16.4181 2.1658C16.8351 2.5158 16.9881 3.0268 16.9421 3.4788C16.8671 4.2318 16.9991 4.9588 17.3621 5.5848C17.6821 6.1418 18.1641 6.5818 18.7521 6.8918L18.9771 7.0018C19.3911 7.1888 19.7591 7.5778 19.8521 8.1148C20.0508 9.25285 20.0508 10.4167 19.8521 11.5548C19.7691 12.0388 19.4621 12.4018 19.0991 12.6058L18.9771 12.6688C18.2871 12.9788 17.7231 13.4588 17.3611 14.0848C16.9991 14.7118 16.8671 15.4378 16.9421 16.1908C16.9871 16.6428 16.8351 17.1548 16.4181 17.5038C15.5313 18.247 14.5224 18.8306 13.4361 19.2288C13.2039 19.3118 12.9549 19.3368 12.7108 19.3014C12.4668 19.266 12.2351 19.1714 12.0361 19.0258C11.4201 18.5848 10.7231 18.3348 10.0001 18.3348C9.27705 18.3348 8.58005 18.5838 7.96505 19.0258C7.7659 19.1715 7.53406 19.2663 7.28982 19.3016C7.04558 19.337 6.79639 19.312 6.56405 19.2288C5.47775 18.8306 4.46878 18.247 3.58205 17.5038C3.39421 17.3443 3.24824 17.1413 3.15691 16.9124C3.06557 16.6835 3.03163 16.4358 3.05805 16.1908C3.13305 15.4378 3.00005 14.7108 2.63805 14.0848C2.30896 13.5254 1.82664 13.0719 1.24805 12.7778L1.02305 12.6678C0.79735 12.5679 0.599571 12.4142 0.447029 12.2202C0.294487 12.0262 0.191833 11.7977 0.148054 11.5548C-0.0506534 10.4167 -0.0506534 9.25285 0.148054 8.1148C0.231054 7.6308 0.538054 7.2678 0.901054 7.0638L1.02305 7.0018C1.71305 6.6908 2.27705 6.2118 2.63905 5.5848C3.00005 4.9588 3.13305 4.2318 3.05805 3.4788C3.03163 3.2338 3.06557 2.98605 3.15691 2.75719C3.24824 2.52832 3.39421 2.32528 3.58205 2.1658C4.46878 1.42262 5.47775 0.838961 6.56405 0.440796C6.79625 0.357742 7.04525 0.33282 7.2893 0.368207C7.53334 0.403594 7.76501 0.498213 7.96405 0.643796C8.57905 1.0858 9.27605 1.3348 10.0001 1.3348C10.7241 1.3348 11.4201 1.0858 12.0351 0.643796ZM12.9921 2.4128C12.1261 2.9828 11.1051 3.3348 10.0001 3.3348C8.89505 3.3348 7.87405 2.9818 7.00805 2.4128C6.31195 2.69392 5.65887 3.07162 5.06805 3.5348C5.12805 4.5678 4.92305 5.6278 4.37105 6.5848C3.81805 7.5408 3.00305 8.2478 2.07805 8.7128C1.97281 9.45642 1.97281 10.2112 2.07805 10.9548C3.00305 11.4198 3.81805 12.1268 4.37105 13.0848C4.92305 14.0398 5.12805 15.0998 5.06805 16.1328C5.65881 16.5963 6.31189 16.9744 7.00805 17.2558C7.87405 16.6858 8.89505 16.3338 10.0001 16.3338C11.1051 16.3338 12.1261 16.6868 12.9921 17.2558C13.6882 16.9747 14.3412 16.597 14.9321 16.1338C14.8721 15.0998 15.0771 14.0398 15.6291 13.0838C16.1811 12.1268 16.9971 11.4198 17.9221 10.9538C18.0271 10.2108 18.0271 9.45677 17.9221 8.7138C16.9971 8.2478 16.1821 7.5408 15.6291 6.5838C15.0771 5.6278 14.8721 4.5678 14.9321 3.5338C14.3412 3.07062 13.6882 2.69392 12.9921 2.4128ZM10.0001 5.8348C11.0609 5.8348 12.0783 6.25622 12.8285 7.00637C13.5786 7.75651 14.0001 8.77393 14.0001 9.8348C14.0001 10.8957 13.5786 11.9131 12.8285 12.6632C12.0783 13.4134 11.0609 13.8348 10.0001 13.8348C8.93919 13.8348 7.92177 13.4134 7.17163 12.6632C6.42148 11.9131 6.00005 10.8957 6.00005 9.8348C6.00005 8.77393 6.42148 7.75651 7.17163 7.00637C7.92177 6.25622 8.93919 5.8348 10.0001 5.8348ZM10.0001 7.8348C9.46962 7.8348 8.96091 8.04551 8.58584 8.42058C8.21077 8.79566 8.00005 9.30436 8.00005 9.8348C8.00005 10.3652 8.21077 10.8739 8.58584 11.249C8.96091 11.6241 9.46962 11.8348 10.0001 11.8348C10.5305 11.8348 11.0392 11.6241 11.4143 11.249C11.7893 10.8739 12.0001 10.3652 12.0001 9.8348C12.0001 9.30436 11.7893 8.79566 11.4143 8.42058C11.0392 8.04551 10.5305 7.8348 10.0001 7.8348Z" fill="#92A6BB"/>
</svg>
