<svg width="18" height="18" viewBox="0 0 18 18" fill="none" xmlns="http://www.w3.org/2000/svg">
<path fill-rule="evenodd" clip-rule="evenodd" d="M6.75 3.75C6.75 3.35218 6.90804 2.97064 7.18934 2.68934C7.47064 2.40804 7.85218 2.25 8.25 2.25H9.75C10.1478 2.25 10.5294 2.40804 10.8107 2.68934C11.092 2.97064 11.25 3.35218 11.25 3.75V6.75H14.25C14.6478 6.75 15.0294 6.90804 15.3107 7.18934C15.592 7.47064 15.75 7.85218 15.75 8.25V9.75C15.75 10.1478 15.592 10.5294 15.3107 10.8107C15.0294 11.092 14.6478 11.25 14.25 11.25H11.25V14.25C11.25 14.6478 11.092 15.0294 10.8107 15.3107C10.5294 15.592 10.1478 15.75 9.75 15.75H8.25C7.85218 15.75 7.47064 15.592 7.18934 15.3107C6.90804 15.0294 6.75 14.6478 6.75 14.25V11.25H3.75C3.35218 11.25 2.97064 11.092 2.68934 10.8107C2.40804 10.5294 2.25 10.1478 2.25 9.75V8.25C2.25 7.85218 2.40804 7.47064 2.68934 7.18934C2.97064 6.90804 3.35218 6.75 3.75 6.75H6.75V3.75Z" fill="#63367D"/>
</svg>
