<svg width="19" height="18" viewBox="0 0 19 18" fill="none" xmlns="http://www.w3.org/2000/svg">
<path d="M11.1898 1.71815C11.3423 1.69276 11.4985 1.69909 11.6485 1.73675C11.7985 1.77441 11.9391 1.8426 12.0616 1.93706C12.184 2.03151 12.2857 2.1502 12.3602 2.28571C12.4348 2.42122 12.4806 2.57065 12.4948 2.72465L12.5 2.82815V3.7499H14C14.3784 3.74978 14.7429 3.89271 15.0204 4.15003C15.2979 4.40734 15.4679 4.76004 15.4963 5.1374L15.5 5.2499V12.7499C15.4999 13.1282 15.3569 13.4925 15.0996 13.7698C14.8423 14.0472 14.4897 14.217 14.1125 14.2454L14 14.2499H12.5V15.1724C12.4999 15.327 12.4679 15.48 12.4061 15.6217C12.3442 15.7634 12.2538 15.8909 12.1405 15.9961C12.0272 16.1013 11.8934 16.182 11.7475 16.2332C11.6016 16.2844 11.4467 16.305 11.2925 16.2937L11.1898 16.2817L4.75325 15.2092C4.42341 15.1542 4.12137 14.9907 3.89513 14.7444C3.66888 14.4982 3.53139 14.1835 3.5045 13.8502L3.5 13.7294V4.2704C3.49997 3.93611 3.6116 3.61139 3.81719 3.34778C4.02277 3.08418 4.31052 2.8968 4.63475 2.8154L4.75325 2.79065L11.1898 1.71815ZM11 3.27065L5 4.2704V13.7294L11 14.7292V3.27065ZM14 5.2499H12.5V12.7499H14V5.2499ZM9.125 7.8749C9.42337 7.8749 9.70952 7.99343 9.9205 8.20441C10.1315 8.41539 10.25 8.70154 10.25 8.9999C10.25 9.29827 10.1315 9.58442 9.9205 9.7954C9.70952 10.0064 9.42337 10.1249 9.125 10.1249C8.82663 10.1249 8.54048 10.0064 8.3295 9.7954C8.11853 9.58442 8 9.29827 8 8.9999C8 8.70154 8.11853 8.41539 8.3295 8.20441C8.54048 7.99343 8.82663 7.8749 9.125 7.8749Z" fill="#63367D"/>
</svg>
