<svg width="19" height="18" viewBox="0 0 19 18" fill="none" xmlns="http://www.w3.org/2000/svg">
<path d="M14.4502 3C15.0469 3 15.6192 3.23705 16.0412 3.65901C16.4631 4.08097 16.7002 4.65326 16.7002 5.25V12.75C16.7002 13.3467 16.4631 13.919 16.0412 14.341C15.6192 14.7629 15.0469 15 14.4502 15H3.9502C3.35346 15 2.78116 14.7629 2.35921 14.341C1.93725 13.919 1.7002 13.3467 1.7002 12.75V5.25C1.7002 4.65326 1.93725 4.08097 2.35921 3.65901C2.78116 3.23705 3.35346 3 3.9502 3H14.4502ZM15.2002 7.5H3.2002V12.75C3.20022 12.9337 3.26766 13.111 3.38973 13.2483C3.5118 13.3856 3.68001 13.4733 3.86245 13.4948L3.9502 13.5H14.4502C14.6339 13.5 14.8112 13.4325 14.9485 13.3105C15.0858 13.1884 15.1735 13.0202 15.1949 12.8378L15.2002 12.75V7.5ZM12.9502 9.75C13.1414 9.75021 13.3252 9.82341 13.4642 9.95464C13.6032 10.0859 13.6869 10.2652 13.6981 10.456C13.7093 10.6469 13.6472 10.8348 13.5245 10.9814C13.4018 11.128 13.2278 11.2222 13.0379 11.2448L12.9502 11.25H10.7002C10.509 11.2498 10.3252 11.1766 10.1862 11.0454C10.0472 10.9141 9.96352 10.7348 9.95232 10.544C9.94111 10.3531 10.0032 10.1652 10.1259 10.0186C10.2486 9.87204 10.4226 9.77783 10.6124 9.75525L10.7002 9.75H12.9502ZM14.4502 4.5H3.9502C3.75128 4.5 3.56052 4.57902 3.41987 4.71967C3.27921 4.86032 3.2002 5.05109 3.2002 5.25V6H15.2002V5.25C15.2002 5.05109 15.1212 4.86032 14.9805 4.71967C14.8399 4.57902 14.6491 4.5 14.4502 4.5Z" fill="#92A6BB"/>
</svg>
