<svg width="19" height="18" viewBox="0 0 19 18" fill="none" xmlns="http://www.w3.org/2000/svg">
<path d="M9.02539 2.25C9.76273 2.24981 10.4798 2.49109 11.0671 2.93695C11.6544 3.38281 12.0795 4.00873 12.2774 4.719L12.3164 4.87275L13.7189 4.5225C13.8214 4.49698 13.9281 4.49341 14.0321 4.51202C14.1361 4.53062 14.235 4.57099 14.3223 4.63046C14.4096 4.68994 14.4834 4.76719 14.5387 4.85715C14.5941 4.94712 14.6299 5.04776 14.6436 5.1525L14.6504 5.25V6.6075C15.0734 7.01272 15.42 7.49086 15.6734 8.019L15.7769 8.25H16.1504C16.3341 8.25002 16.5114 8.31747 16.6487 8.43954C16.7859 8.56161 16.8736 8.72981 16.8951 8.91225L16.9004 9V11.25C16.9004 11.3734 16.87 11.495 16.8117 11.6038C16.7535 11.7127 16.6693 11.8055 16.5666 11.874L16.4856 11.9205L15.6096 12.3593C15.2516 13.0535 14.732 13.6515 14.0946 14.103L13.9004 14.2335V15C13.9004 15.1837 13.8329 15.361 13.7109 15.4983C13.5888 15.6356 13.4206 15.7233 13.2381 15.7448L13.1504 15.75H10.9004C10.7167 15.75 10.5394 15.6825 10.4021 15.5605C10.2648 15.4384 10.1771 15.2702 10.1556 15.0878L10.1504 15H9.40039C9.40037 15.1837 9.33292 15.361 9.21085 15.4983C9.08878 15.6356 8.92058 15.7233 8.73814 15.7448L8.65039 15.75H6.40039C6.21669 15.75 6.03939 15.6825 5.90211 15.5605C5.76484 15.4384 5.67713 15.2702 5.65564 15.0878L5.65039 15V14.2335C5.10836 13.8874 4.64017 13.4374 4.27281 12.9095C3.90544 12.3816 3.64616 11.7863 3.50989 11.1578C3.06753 11.0263 2.67627 10.762 2.38917 10.4007C2.10207 10.0395 1.933 9.59862 1.90489 9.138L1.90039 9V8.625C1.9006 8.43384 1.9738 8.24998 2.10503 8.11097C2.23625 7.97197 2.41561 7.88832 2.60644 7.87712C2.79727 7.86592 2.98518 7.92801 3.13177 8.0507C3.27835 8.17339 3.37256 8.34743 3.39514 8.53725L3.40039 8.625V9C3.40139 9.112 3.42389 9.21575 3.46789 9.31125C3.58219 8.63597 3.83748 7.99236 4.21715 7.42234C4.59681 6.85233 5.09232 6.36871 5.67139 6.003C5.61818 5.53086 5.66525 5.05281 5.80953 4.60012C5.95381 4.14743 6.19205 3.73031 6.50865 3.37604C6.82526 3.02177 7.21309 2.73834 7.64679 2.5443C8.08048 2.35025 8.55026 2.24997 9.02539 2.25ZM13.1504 6.21L11.0819 6.7275L10.9919 6.74475L10.9004 6.75H8.27539C7.51704 6.7495 6.78063 7.00441 6.18488 7.47364C5.58913 7.94287 5.16878 8.59906 4.99158 9.33642C4.81439 10.0738 4.8907 10.8493 5.20819 11.538C5.52569 12.2267 6.06587 12.7884 6.74164 13.1325C6.85052 13.1882 6.94414 13.2696 7.01434 13.3698C7.08453 13.4699 7.12918 13.5857 7.14439 13.707L7.15039 13.8V14.25H7.90039C7.90041 14.0663 7.96786 13.889 8.08993 13.7517C8.212 13.6144 8.3802 13.5267 8.56264 13.5052L8.65039 13.5H10.9004C11.0841 13.5 11.2614 13.5675 11.3987 13.6895C11.5359 13.8116 11.6236 13.9798 11.6451 14.1622L11.6504 14.25H12.4004V13.8C12.4005 13.6619 12.4387 13.5265 12.5108 13.4087C12.5829 13.2909 12.6862 13.1953 12.8091 13.1325C13.4975 12.7803 14.0447 12.2034 14.3601 11.4975C14.4164 11.3713 14.5065 11.263 14.6204 11.1847L14.7096 11.1322L15.4004 10.7865V9.75H15.2451C15.0818 9.74995 14.923 9.6966 14.7928 9.59805C14.6626 9.49951 14.5681 9.36115 14.5236 9.204C14.3362 8.54415 13.9521 7.95708 13.4226 7.521C13.2758 7.39966 13.1806 7.22697 13.1564 7.038L13.1504 6.94275V6.21ZM12.4004 8.25C12.5993 8.25 12.7901 8.32902 12.9307 8.46967C13.0714 8.61032 13.1504 8.80109 13.1504 9C13.1504 9.19891 13.0714 9.38968 12.9307 9.53033C12.7901 9.67098 12.5993 9.75 12.4004 9.75C12.2015 9.75 12.0107 9.67098 11.8701 9.53033C11.7294 9.38968 11.6504 9.19891 11.6504 9C11.6504 8.80109 11.7294 8.61032 11.8701 8.46967C12.0107 8.32902 12.2015 8.25 12.4004 8.25ZM9.02539 3.75C8.57111 3.75 8.13228 3.91493 7.79045 4.21413C7.44862 4.51334 7.22704 4.92647 7.16689 5.37675C7.53032 5.29222 7.90226 5.24969 8.27539 5.25H10.8081L10.8606 5.23725C10.7717 4.81647 10.5408 4.43905 10.2067 4.16828C9.87254 3.8975 9.45547 3.74982 9.02539 3.75Z" fill="#92A6BB"/>
</svg>
