<svg width="18" height="18" viewBox="0 0 18 18" fill="none" xmlns="http://www.w3.org/2000/svg">
<path fill-rule="evenodd" clip-rule="evenodd" d="M4.5 5.99995C4.50014 5.20501 4.71086 4.42428 5.11072 3.73722C5.51058 3.05016 6.08531 2.48129 6.77642 2.08848C7.46754 1.69568 8.25038 1.49296 9.04529 1.50096C9.8402 1.50896 10.6188 1.72739 11.3019 2.13403C11.9849 2.54067 12.5481 3.12099 12.9341 3.81596C13.32 4.51093 13.515 5.29574 13.4991 6.09053C13.4832 6.88532 13.2571 7.66172 12.8437 8.34074C12.4304 9.01975 11.8445 9.57715 11.1458 9.9562C11.1144 9.9729 11.0874 9.99681 11.067 10.026L11.0588 10.044L11.145 11.25H13.5C14.0967 11.25 14.669 11.487 15.091 11.909C15.5129 12.3309 15.75 12.9032 15.75 13.5V15C15.75 15.3978 15.592 15.7793 15.3107 16.0606C15.0294 16.3419 14.6478 16.5 14.25 16.5H3.75C3.35218 16.5 2.97064 16.3419 2.68934 16.0606C2.40804 15.7793 2.25 15.3978 2.25 15V13.5C2.25 12.9032 2.48705 12.3309 2.90901 11.909C3.33097 11.487 3.90326 11.25 4.5 11.25H6.855L6.94125 10.044L6.93375 10.026C6.91317 9.99672 6.88592 9.97281 6.85425 9.9562C6.14199 9.56982 5.54727 8.99828 5.1329 8.30193C4.71852 7.60558 4.49986 6.81027 4.5 5.99995ZM9 2.99995C8.33235 2.99955 7.68364 3.22188 7.15659 3.63173C6.62954 4.04158 6.25427 4.61553 6.0902 5.2627C5.92612 5.90988 5.98262 6.5933 6.25074 7.20474C6.51887 7.81619 6.9833 8.32072 7.5705 8.63845C8.0655 8.90695 8.487 9.4597 8.4375 10.1497L8.35125 11.3572C8.32413 11.7355 8.15471 12.0895 7.8771 12.3479C7.59948 12.6063 7.23427 12.75 6.855 12.75H4.5C4.30109 12.75 4.11032 12.829 3.96967 12.9696C3.82902 13.1103 3.75 13.301 3.75 13.5V15H14.25V13.5C14.25 13.301 14.171 13.1103 14.0303 12.9696C13.8897 12.829 13.6989 12.75 13.5 12.75H11.145C10.7657 12.75 10.4005 12.6063 10.1229 12.3479C9.84529 12.0895 9.67587 11.7355 9.64875 11.3572L9.5625 10.1497C9.513 9.4597 9.93525 8.90695 10.4295 8.63845C11.0167 8.32072 11.4811 7.81619 11.7493 7.20474C12.0174 6.5933 12.0739 5.90988 11.9098 5.2627C11.7457 4.61553 11.3705 4.04158 10.8434 3.63173C10.3164 3.22188 9.66765 2.99955 9 2.99995Z" fill="#92A6BB"/>
</svg>
