<svg width="18" height="18" viewBox="0 0 18 18" fill="none" xmlns="http://www.w3.org/2000/svg">
<path d="M15.1873 2.64901C15.3208 2.61448 15.4613 2.61744 15.5933 2.65756C15.7252 2.69769 15.8436 2.77343 15.9353 2.87646C16.027 2.97948 16.0885 3.1058 16.1131 3.24153C16.1376 3.37725 16.1243 3.51712 16.0745 3.64576L11.5745 15.2708C11.53 15.3859 11.4578 15.4883 11.3642 15.5688C11.2706 15.6493 11.1586 15.7055 11.0382 15.7324C10.9177 15.7592 10.7924 15.7559 10.6735 15.7228C10.5546 15.6896 10.4457 15.6276 10.3565 15.5423L7.82003 13.116L6.91778 14.0175C6.44078 14.4945 5.62478 14.157 5.62478 13.482V11.016L1.73153 7.29226C1.63493 7.19984 1.56479 7.08329 1.52837 6.95466C1.49195 6.82603 1.49057 6.69001 1.52438 6.56067C1.55819 6.43133 1.62595 6.31337 1.72065 6.21902C1.81536 6.12466 1.93356 6.05734 2.06303 6.02401L15.1873 2.64901ZM13.6018 5.87776L7.60328 10.833L10.5808 13.6815L13.6018 5.87776ZM12.4183 4.91026L3.74303 7.14001L6.51203 9.78751L12.4183 4.90876V4.91026Z" fill="#63367D"/>
</svg>
