<svg width="19" height="18" viewBox="0 0 19 18" fill="none" xmlns="http://www.w3.org/2000/svg">
<path d="M8.55786 7.95825C8.66475 7.85139 8.80143 7.77932 8.94998 7.75148C9.09854 7.72365 9.25203 7.74134 9.39036 7.80225L16.0196 10.719C16.1615 10.7815 16.2805 10.8864 16.3603 11.0193C16.4401 11.1522 16.4768 11.3065 16.4653 11.4611C16.4538 11.6157 16.3947 11.7629 16.296 11.8825C16.1974 12.0021 16.0642 12.0882 15.9146 12.129L13.4111 12.8115L12.7286 15.315C12.6878 15.4646 12.6017 15.5978 12.4821 15.6964C12.3625 15.795 12.2153 15.8542 12.0607 15.8657C11.9061 15.8772 11.7518 15.8405 11.6189 15.7607C11.486 15.6809 11.3811 15.5619 11.3186 15.42L8.40111 8.79C8.34046 8.6517 8.32298 8.49831 8.35094 8.3499C8.37891 8.2015 8.45103 8.06499 8.55786 7.95825ZM13.3496 2.25C13.9463 2.25 14.5186 2.48705 14.9406 2.90901C15.3626 3.33097 15.5996 3.90326 15.5996 4.5V6.75C15.5996 6.94891 15.5206 7.13968 15.3799 7.28033C15.2393 7.42098 15.0485 7.5 14.8496 7.5C14.6507 7.5 14.4599 7.42098 14.3193 7.28033C14.1786 7.13968 14.0996 6.94891 14.0996 6.75V4.5C14.0996 4.30109 14.0206 4.11032 13.8799 3.96967C13.7393 3.82902 13.5485 3.75 13.3496 3.75H5.09961C4.9007 3.75 4.70993 3.82902 4.56928 3.96967C4.42863 4.11032 4.34961 4.30109 4.34961 4.5V12.75C4.34961 12.9489 4.42863 13.1397 4.56928 13.2803C4.70993 13.421 4.9007 13.5 5.09961 13.5H7.34961C7.54852 13.5 7.73929 13.579 7.87994 13.7197C8.02059 13.8603 8.09961 14.0511 8.09961 14.25C8.09961 14.4489 8.02059 14.6397 7.87994 14.7803C7.73929 14.921 7.54852 15 7.34961 15H5.09961C4.50287 15 3.93058 14.7629 3.50862 14.341C3.08666 13.919 2.84961 13.3467 2.84961 12.75V4.5C2.84961 3.90326 3.08666 3.33097 3.50862 2.90901C3.93058 2.48705 4.50287 2.25 5.09961 2.25H13.3496ZM10.5521 9.95175L11.8384 12.8768L12.0769 12.0037C12.1111 11.8778 12.1776 11.763 12.2698 11.6707C12.362 11.5784 12.4767 11.5117 12.6026 11.4773L13.4764 11.2387L10.5514 9.95175H10.5521Z" fill="#92A6BB"/>
</svg>
