<svg width="19" height="18" viewBox="0 0 19 18" fill="none" xmlns="http://www.w3.org/2000/svg">
<g clip-path="url(#clip0_1916_246)">
<path d="M9.7998 1.5C9.99872 1.5 10.1895 1.57902 10.3301 1.71967C10.4708 1.86032 10.5498 2.05109 10.5498 2.25V2.29125C12.0715 2.46181 13.49 3.14443 14.5727 4.22713C15.6554 5.30984 16.338 6.72835 16.5086 8.25H16.5498C16.7487 8.25 16.9395 8.32902 17.0801 8.46967C17.2208 8.61032 17.2998 8.80109 17.2998 9C17.2998 9.19891 17.2208 9.38968 17.0801 9.53033C16.9395 9.67098 16.7487 9.75 16.5498 9.75H16.5086C16.338 11.2716 15.6554 12.6902 14.5727 13.7729C13.49 14.8556 12.0715 15.5382 10.5498 15.7087V15.75C10.5498 15.9489 10.4708 16.1397 10.3301 16.2803C10.1895 16.421 9.99872 16.5 9.7998 16.5C9.60089 16.5 9.41013 16.421 9.26947 16.2803C9.12882 16.1397 9.0498 15.9489 9.0498 15.75V15.7087C7.52816 15.5382 6.10964 14.8556 5.02694 13.7729C3.94423 12.6902 3.26161 11.2716 3.09105 9.75H3.0498C2.85089 9.75 2.66013 9.67098 2.51947 9.53033C2.37882 9.38968 2.2998 9.19891 2.2998 9C2.2998 8.80109 2.37882 8.61032 2.51947 8.46967C2.66013 8.32902 2.85089 8.25 3.0498 8.25H3.09105C3.26161 6.72835 3.94423 5.30984 5.02694 4.22713C6.10964 3.14443 7.52816 2.46181 9.0498 2.29125V2.25C9.0498 2.05109 9.12882 1.86032 9.26947 1.71967C9.41013 1.57902 9.60089 1.5 9.7998 1.5ZM10.5498 3.8025V4.5C10.5496 4.69116 10.4764 4.87502 10.3452 5.01403C10.2139 5.15303 10.0346 5.23668 9.84376 5.24788C9.65293 5.25908 9.46502 5.19699 9.31843 5.0743C9.17184 4.95161 9.07763 4.77757 9.05505 4.58775L9.0498 4.5V3.8025C7.96082 3.96067 6.94891 4.45655 6.15667 5.22027C5.36442 5.98399 4.83179 6.97704 4.6338 8.0595L4.60305 8.25H5.2998C5.49096 8.25021 5.67483 8.32341 5.81383 8.45464C5.95283 8.58586 6.03648 8.76521 6.04768 8.95605C6.05889 9.14688 5.9968 9.33478 5.87411 9.48137C5.75141 9.62796 5.57738 9.72217 5.38755 9.74475L5.2998 9.75H4.6023C4.76048 10.839 5.25636 11.8509 6.02008 12.6431C6.78379 13.4354 7.77685 13.968 8.8593 14.166L9.0498 14.1968V13.5C9.05002 13.3088 9.12321 13.125 9.25444 12.986C9.38567 12.847 9.56502 12.7633 9.75585 12.7521C9.94668 12.7409 10.1346 12.803 10.2812 12.9257C10.4278 13.0484 10.522 13.2224 10.5446 13.4122L10.5498 13.5V14.1975C11.6388 14.0393 12.6507 13.5434 13.4429 12.7797C14.2352 12.016 14.7678 11.023 14.9658 9.9405L14.9966 9.75H14.2998C14.1086 9.74979 13.9248 9.67659 13.7858 9.54536C13.6468 9.41414 13.5631 9.23479 13.5519 9.04395C13.5407 8.85312 13.6028 8.66522 13.7255 8.51863C13.8482 8.37204 14.0222 8.27783 14.2121 8.25525L14.2998 8.25H14.9973C14.8391 7.16101 14.3432 6.1491 13.5795 5.35686C12.8158 4.56462 11.8228 4.03198 10.7403 3.834L10.5498 3.8025ZM9.7998 7.875C10.0982 7.875 10.3843 7.99353 10.5953 8.2045C10.8063 8.41548 10.9248 8.70163 10.9248 9C10.9248 9.29837 10.8063 9.58452 10.5953 9.7955C10.3843 10.0065 10.0982 10.125 9.7998 10.125C9.50144 10.125 9.21529 10.0065 9.00431 9.7955C8.79333 9.58452 8.6748 9.29837 8.6748 9C8.6748 8.70163 8.79333 8.41548 9.00431 8.2045C9.21529 7.99353 9.50144 7.875 9.7998 7.875Z" fill="#92A6BB"/>
</g>
<defs>
<clipPath id="clip0_1916_246">
<rect width="18" height="18" fill="white" transform="translate(0.799805)"/>
</clipPath>
</defs>
</svg>
